<?xml version="1.0" encoding="UTF-8"?>
<svg version="1.1" xmlns="http://www.w3.org/2000/svg" width="270" height="100">
<path d="M0 0 C89.1 0 178.2 0 270 0 C270 19.8 270 39.6 270 60 C213.57 60 157.14 60 99 60 C98.34 61.32 97.68 62.64 97 64 C94.00103963 66.30689259 90.75842357 66.41170615 87.0390625 66.328125 C83.69683229 65.79029485 81.53163926 64.15189337 79 62 C79 61.34 79 60.68 79 60 C59.86 60 40.72 60 21 60 C21 62.64 21 65.28 21 68 C14.07 68 7.14 68 0 68 C0 45.56 0 23.12 0 0 Z " fill="#ECECEC" transform="translate(0,0)"/>
<path d="M0 0 C14.85 0 29.7 0 45 0 C45 7.92 45 15.84 45 24 C41.04 24 37.08 24 33 24 C33 27.96 33 31.92 33 36 C29.04 36 25.08 36 21 36 C21 39.96 21 43.92 21 48 C17.04 48 13.08 48 9 48 C9 51.96 9 55.92 9 60 C6.03 60 3.06 60 0 60 C0 40.2 0 20.4 0 0 Z " fill="#D32616" transform="translate(0,0)"/>
<path d="M0 0 C7.92 0 15.84 0 24 0 C24 7.92 24 15.84 24 24 C16.08 24 8.16 24 0 24 C0 26.64 0 29.28 0 32 C-6.93 32 -13.86 32 -21 32 C-21 29.36 -21 26.72 -21 24 C-18.03 24 -15.06 24 -12 24 C-12 20.04 -12 16.08 -12 12 C-8.04 12 -4.08 12 0 12 C0 8.04 0 4.08 0 0 Z " fill="#E9976F" transform="translate(21,36)"/>
<path d="M0 0 C4.06219391 0.04520725 6.5258907 0.61209239 9.75 3.25 C12.58628194 7.50442291 12.26845373 11.25689181 11.75 16.25 C10.51777541 19.20733901 9.55857462 20.62110863 7.0625 22.5625 C1.79437402 24.12869962 -1.91846527 23.95208195 -6.6875 21.4375 C-9.55637582 18.98845966 -10.08644266 17.62855469 -10.5234375 13.9453125 C-10.80019305 6.94126819 -10.80019305 6.94126819 -7.8125 3.1875 C-6.966875 2.548125 -6.12125 1.90875 -5.25 1.25 C-3.68966377 -0.31033623 -2.16052864 0.04292441 0 0 Z " fill="#C72E20" transform="translate(88.25,42.75)"/>
<path d="M0 0 C0.103125 0.639375 0.20625 1.27875 0.3125 1.9375 C0.6528125 2.9584375 0.6528125 2.9584375 1 4 C1.99 4.33 2.98 4.66 4 5 C4 6.65 4 8.3 4 10 C4.99 10 5.98 10 7 10 C7 10.99 7 11.98 7 13 C6.01 13 5.02 13 4 13 C4 16.3 4 19.6 4 23 C4.99 22.67 5.98 22.34 7 22 C7.33 23.32 7.66 24.64 8 26 C5.29120665 27.35439668 2.99066732 27.06501451 0 27 C-1.38226016 24.23547967 -1.09525387 21.9538637 -1.0625 18.875 C-1.05347656 17.77929688 -1.04445312 16.68359375 -1.03515625 15.5546875 C-1.02355469 14.71164063 -1.01195312 13.86859375 -1 13 C-2.98 13 -4.96 13 -7 13 C-7 17.62 -7 22.24 -7 27 C-8.65 27 -10.3 27 -12 27 C-12 22.38 -12 17.76 -12 13 C-12.66 13 -13.32 13 -14 13 C-14 12.01 -14 11.02 -14 10 C-13.01 10 -12.02 10 -11 10 C-11.0825 9.0925 -11.165 8.185 -11.25 7.25 C-11 4 -11 4 -9.4375 1.625 C-6.18317497 -0.54455002 -3.82869586 -0.29451507 0 0 Z " fill="#AEAEAE" transform="translate(217,29)"/>
<path d="M0 0 C3.96 0 7.92 0 12 0 C12 7.92 12 15.84 12 24 C8.04 24 4.08 24 0 24 C0 16.08 0 8.16 0 0 Z " fill="#D32616" transform="translate(33,36)"/>
<path d="M0 0 C7.92 0 15.84 0 24 0 C24 3.96 24 7.92 24 12 C16.08 12 8.16 12 0 12 C0 8.04 0 4.08 0 0 Z " fill="#F9E3D9" transform="translate(33,24)"/>
<path d="M0 0 C1.65 0 3.3 0 5 0 C5 2.97 5 5.94 5 9 C6.093125 8.938125 7.18625 8.87625 8.3125 8.8125 C12 9 12 9 13.9375 10 C15.67839899 13.27698633 15.71202574 16.44678419 15 20 C13.0625 23 13.0625 23 10 25 C6.94554806 25.4459811 4.05538493 25.44189452 1 25 C0 24 0 24 -0.11352539 21.68334961 C-0.10828857 20.68311768 -0.10305176 19.68288574 -0.09765625 18.65234375 C-0.09443359 17.57275391 -0.09121094 16.49316406 -0.08789062 15.38085938 C-0.07951172 14.24455078 -0.07113281 13.10824219 -0.0625 11.9375 C-0.05798828 10.79732422 -0.05347656 9.65714844 -0.04882812 8.48242188 C-0.03699747 5.65489649 -0.0205141 2.8274736 0 0 Z " fill="#0E0E0E" transform="translate(138,31)"/>
<path d="M0 0 C3.24985922 2.68113385 3.89575014 4.35133418 4.5625 8.5 C4 12 4 12 1.9375 14.9375 C-1 17 -1 17 -4.5 17.625 C-8.95850936 16.82883761 -10.40783917 15.69186542 -13 12 C-13.7878128 7.5882483 -13.52975133 5.77807226 -11 2.0625 C-6.83082591 -0.80380719 -4.98902441 -0.79190864 0 0 Z " fill="#ADADAD" transform="translate(199,39)"/>
<path d="M0 0 C1.65 0 3.3 0 5 0 C5.33 4.29 5.66 8.58 6 13 C6.99 11.68 7.98 10.36 9 9 C11.6875 8.75 11.6875 8.75 14 9 C13.319375 9.9075 12.63875 10.815 11.9375 11.75 C9.80002584 14.6739974 9.80002584 14.6739974 10.0625 17.125 C11.14654163 19.29308326 12.52776148 21.07968888 14 23 C14 23.66 14 24.32 14 25 C11.6875 25.3125 11.6875 25.3125 9 25 C7.1875 22.5 7.1875 22.5 6 20 C5.67 21.65 5.34 23.3 5 25 C3.35 25 1.7 25 0 25 C0 16.75 0 8.5 0 0 Z " fill="#161616" transform="translate(107,31)"/>
<path d="M0 0 C1.9375 1.125 1.9375 1.125 3 3 C3.65088557 7.39347757 3.47438867 9.30998011 0.9375 13 C-2 15 -2 15 -5.625 15 C-10.61768902 13.52068474 -10.61768902 13.52068474 -12 11 C-12.39309578 7.90437069 -12.62338668 5.95663395 -12 3 C-8.3655827 -1.51548816 -5.40521016 -1.50144727 0 0 Z " fill="#CC4033" transform="translate(109,62)"/>
<path d="M0 0 C0.80308594 -0.02578125 1.60617188 -0.0515625 2.43359375 -0.078125 C3.48740234 0.08429687 3.48740234 0.08429687 4.5625 0.25 C6.83204631 3.65431947 6.92799949 5.41524202 7.1875 9.4375 C7.26226562 10.52417969 7.33703125 11.61085938 7.4140625 12.73046875 C7.46304688 13.56191406 7.51203125 14.39335938 7.5625 15.25 C3.14243514 16.49871787 -2.21721101 17.3601445 -6.4375 15.25 C-6.5625 12.375 -6.5625 12.375 -6.4375 9.25 C-3.8720406 6.6845406 -1.96063332 6.70953913 1.5625 6.25 C1.5625 5.26 1.5625 4.27 1.5625 3.25 C0.4178125 3.745 0.4178125 3.745 -0.75 4.25 C-3.4375 5.25 -3.4375 5.25 -6.4375 5.25 C-5.37798943 0.55788178 -4.83949773 0.09291836 0 0 Z " fill="#202020" transform="translate(161.4375,39.75)"/>
<path d="M0 0 C0.80308594 -0.02578125 1.60617188 -0.0515625 2.43359375 -0.078125 C3.48740234 0.08429687 3.48740234 0.08429687 4.5625 0.25 C6.98380331 3.88195496 6.77272785 5.63349348 6.6875 9.9375 C6.66945312 11.11699219 6.65140625 12.29648437 6.6328125 13.51171875 C6.59800781 14.86716797 6.59800781 14.86716797 6.5625 16.25 C4.58340602 16.27686553 2.60421029 16.29633375 0.625 16.3125 C-0.47714844 16.32410156 -1.57929687 16.33570312 -2.71484375 16.34765625 C-5.4375 16.25 -5.4375 16.25 -6.4375 15.25 C-6.625 12.3125 -6.625 12.3125 -6.4375 9.25 C-4.07796906 6.89046906 -2.65854383 6.75858587 0.5625 6.25 C0.8925 5.26 1.2225 4.27 1.5625 3.25 C-1.0775 3.91 -3.7175 4.57 -6.4375 5.25 C-5.13920559 0.05682235 -4.9830575 0.0956747 0 0 Z " fill="#1F1F1F" transform="translate(128.4375,39.75)"/>
<path d="M0 0 C6.93 0 13.86 0 21 0 C21 2.64 21 5.28 21 8 C14.07 8 7.14 8 0 8 C0 5.36 0 2.72 0 0 Z " fill="#E8916A" transform="translate(0,60)"/>
<path d="M0 0 C0.90492188 0.02320313 1.80984375 0.04640625 2.7421875 0.0703125 C4.10730469 0.09738281 4.10730469 0.09738281 5.5 0.125 C6.19867188 0.14820313 6.89734375 0.17140625 7.6171875 0.1953125 C7.9471875 0.8553125 8.2771875 1.5153125 8.6171875 2.1953125 C8.2871875 2.8553125 7.9571875 3.5153125 7.6171875 4.1953125 C4.9771875 3.8653125 2.3371875 3.5353125 -0.3828125 3.1953125 C2.2405883 6.11020227 5.33535144 8.08035148 8.6171875 10.1953125 C7.8671875 14.9453125 7.8671875 14.9453125 5.6171875 17.1953125 C3.5234375 17.42578125 3.5234375 17.42578125 1.1171875 17.3828125 C0.323125 17.37636719 -0.4709375 17.36992188 -1.2890625 17.36328125 C-3.3828125 17.1953125 -3.3828125 17.1953125 -5.3828125 16.1953125 C-5.0528125 14.8753125 -4.7228125 13.5553125 -4.3828125 12.1953125 C-1.7428125 12.8553125 0.8971875 13.5153125 3.6171875 14.1953125 C3.6171875 13.2053125 3.6171875 12.2153125 3.6171875 11.1953125 C2.4828125 10.8859375 1.3484375 10.5765625 0.1796875 10.2578125 C-3.3828125 9.1953125 -3.3828125 9.1953125 -4.3828125 8.1953125 C-4.5703125 5.2578125 -4.5703125 5.2578125 -4.3828125 2.1953125 C-2.3828125 0.1953125 -2.3828125 0.1953125 0 0 Z " fill="#ACACAC" transform="translate(176.3828125,38.8046875)"/>
<path d="M0 0 C3.96 0 7.92 0 12 0 C12 3.96 12 7.92 12 12 C8.04 12 4.08 12 0 12 C0 8.04 0 4.08 0 0 Z " fill="#F4CAB8" transform="translate(9,48)"/>
<path d="M0 0 C3.96 0 7.92 0 12 0 C12 3.96 12 7.92 12 12 C8.04 12 4.08 12 0 12 C0 8.04 0 4.08 0 0 Z " fill="#DD5940" transform="translate(33,36)"/>
<path d="M0 0 C3.96 0 7.92 0 12 0 C12 3.96 12 7.92 12 12 C8.04 12 4.08 12 0 12 C0 8.04 0 4.08 0 0 Z " fill="#EDEDED" transform="translate(21,36)"/>
<path d="M0 0 C3.96 0 7.92 0 12 0 C12 3.96 12 7.92 12 12 C8.04 12 4.08 12 0 12 C0 8.04 0 4.08 0 0 Z " fill="#EDEDED" transform="translate(33,24)"/>
<path d="M0 0 C3.96 0 7.92 0 12 0 C12 3.96 12 7.92 12 12 C8.04 12 4.08 12 0 12 C0 8.04 0 4.08 0 0 Z " fill="#E9976F" transform="translate(21,12)"/>
<path d="M0 0 C3.96 0 7.92 0 12 0 C12 3.96 12 7.92 12 12 C8.04 12 4.08 12 0 12 C0 8.04 0 4.08 0 0 Z " fill="#ECA09A" transform="translate(45,0)"/>
<path d="M0 0 C0.99 0.33 1.98 0.66 3 1 C2.67 1.99 2.34 2.98 2 4 C2.5775 3.67 3.155 3.34 3.75 3 C6 2 6 2 10 2 C9.875 3.875 9.875 3.875 9 6 C5.9375 7.25 5.9375 7.25 3 8 C2.67 10.31 2.34 12.62 2 15 C-0.33524782 12.74259377 -2.18705073 10.7194239 -4 8 C-3.67339287 4.62505968 -2.11635213 2.57642867 0 0 Z " fill="#DCDCDC" transform="translate(120,41)"/>
<path d="M0 0 C20.46 0 40.92 0 62 0 C62 0.33 62 0.66 62 1 C41.54 1 21.08 1 0 1 C0 0.67 0 0.34 0 0 Z " fill="#E9976F" transform="translate(208,73)"/>
<path d="M0 0 C3.53571429 0.53571429 3.53571429 0.53571429 5 2 C5.125 5.5 5.125 5.5 5 9 C4 10 4 10 1.4375 10.0625 C0.633125 10.041875 -0.17125 10.02125 -1 10 C-2.38125018 7.23749964 -2.19079306 5.05268901 -2 2 C-1.34 1.34 -0.68 0.68 0 0 Z " fill="#E9E9E9" transform="translate(193,42)"/>
<path d="M0 0 C4.875 0.875 4.875 0.875 6 2 C6.30392154 4.88725465 6.41849029 6.42208484 4.6875 8.8125 C3 10 3 10 0 10 C0 6.7 0 3.4 0 0 Z " fill="#E0E0E0" transform="translate(143,43)"/>
<path d="M0 0 C15.51 0 31.02 0 47 0 C47 0.33 47 0.66 47 1 C31.49 1 15.98 1 0 1 C0 0.67 0 0.34 0 0 Z " fill="#D32616" transform="translate(0,70)"/>
<path d="M0 0 C2.97 0 5.94 0 9 0 C8.67 1.98 8.34 3.96 8 6 C7.34 6 6.68 6 6 6 C6 4.68 6 3.36 6 2 C5.01 2 4.02 2 3 2 C2.67 3.32 2.34 4.64 2 6 C1.34 6 0.68 6 0 6 C0 4.02 0 2.04 0 0 Z " fill="#959595" transform="translate(140,63)"/>
<path d="M0 0 C2.31 0 4.62 0 7 0 C6.67 1.98 6.34 3.96 6 6 C4.35 6 2.7 6 1 6 C0.67 4.02 0.34 2.04 0 0 Z " fill="#7B7B7B" transform="translate(196,63)"/>
<path d="M0 0 C1.67542976 0.28604898 3.34385343 0.61781233 5 1 C5 2.65 5 4.3 5 6 C3.02 6 1.04 6 -1 6 C-1.042721 4.33388095 -1.04063832 2.66617115 -1 1 C-0.67 0.67 -0.34 0.34 0 0 Z " fill="#E9E9E9" transform="translate(211,33)"/>
<path d="M0 0 C2.31 0 4.62 0 7 0 C6.67 1.98 6.34 3.96 6 6 C4.35 6 2.7 6 1 6 C0.67 4.02 0.34 2.04 0 0 Z " fill="#787878" transform="translate(150,63)"/>
<path d="M0 0 C1.65 0.33 3.3 0.66 5 1 C5.33 1.99 5.66 2.98 6 4 C5.67 4.66 5.34 5.32 5 6 C3.35 6 1.7 6 0 6 C-1.125 2.25 -1.125 2.25 0 0 Z M1 2 C1.33 2.99 1.66 3.98 2 5 C2.66 4.34 3.32 3.68 4 3 C3.01 2.67 2.02 2.34 1 2 Z " fill="#7F7F7F" transform="translate(133,63)"/>
<path d="M0 0 C1.66666667 0 3.33333333 0 5 0 C5 1.98 5 3.96 5 6 C3.35 6 1.7 6 0 6 C0 4.02 0 2.04 0 0 Z " fill="#6F6F6F" transform="translate(231,63)"/>
<path d="M0 0 C1.66666667 0 3.33333333 0 5 0 C5 1.98 5 3.96 5 6 C3.35 6 1.7 6 0 6 C0 4.02 0 2.04 0 0 Z " fill="#6F6F6F" transform="translate(184,63)"/>
<path d="M0 0 C1.32 0 2.64 0 4 0 C4.33 1.98 4.66 3.96 5 6 C3.35 6 1.7 6 0 6 C0 4.02 0 2.04 0 0 Z " fill="#7E7E7E" transform="translate(164,63)"/>
<path d="M0 0 C1.32 0 2.64 0 4 0 C4 0.66 4 1.32 4 2 C3.01 2.495 3.01 2.495 2 3 C2.66 3 3.32 3 4 3 C4 3.99 4 4.98 4 6 C2.35 6 0.7 6 -1 6 C-1.042721 4.33388095 -1.04063832 2.66617115 -1 1 C-0.67 0.67 -0.34 0.34 0 0 Z " fill="#777777" transform="translate(239,63)"/>
<path d="M0 0 C0.99 0.33 1.98 0.66 3 1 C3.33 2.65 3.66 4.3 4 6 C2.35 6 0.7 6 -1 6 C-0.67 4.02 -0.34 2.04 0 0 Z " fill="#7D7D7D" transform="translate(159,63)"/>
<path d="M0 0 C0.66 0 1.32 0 2 0 C2.33 1.32 2.66 2.64 3 4 C3.66 2.68 4.32 1.36 5 0 C5 1.98 5 3.96 5 6 C3.35 6 1.7 6 0 6 C0 4.02 0 2.04 0 0 Z " fill="#6D6D6D" transform="translate(224,63)"/>
<path d="M0 0 C1.65 0 3.3 0 5 0 C5 0.66 5 1.32 5 2 C3.68 2 2.36 2 1 2 C1.66 2.66 2.32 3.32 3 4 C3.33 4.66 3.66 5.32 4 6 C2.68 6 1.36 6 0 6 C-1.125 2.25 -1.125 2.25 0 0 Z " fill="#878787" transform="translate(208,63)"/>
<path d="M0 0 C0.99 0 1.98 0 3 0 C3 1.98 3 3.96 3 6 C1.68 6 0.36 6 -1 6 C-1.042721 4.33388095 -1.04063832 2.66617115 -1 1 C-0.67 0.67 -0.34 0.34 0 0 Z " fill="#808080" transform="translate(128,63)"/>
<path d="M0 0 C1.32 0 2.64 0 4 0 C4 1.98 4 3.96 4 6 C2.68 6 1.36 6 0 6 C0 4.02 0 2.04 0 0 Z " fill="#6D6D6D" transform="translate(214,63)"/>
<path d="M0 0 C1.32 0 2.64 0 4 0 C3.814375 0.61875 3.62875 1.2375 3.4375 1.875 C2.76313824 4.04160178 2.76313824 4.04160178 4 6 C2.68 6 1.36 6 0 6 C0 4.02 0 2.04 0 0 Z " fill="#808080" transform="translate(170,63)"/>
<path d="M0 0 C1.32 0 2.64 0 4 0 C3.814375 0.61875 3.62875 1.2375 3.4375 1.875 C2.76313824 4.04160178 2.76313824 4.04160178 4 6 C2.68 6 1.36 6 0 6 C0 4.02 0 2.04 0 0 Z " fill="#797979" transform="translate(179,63)"/>
<path d="M0 0 C1.65 0 3.3 0 5 0 C4.67 1.98 4.34 3.96 4 6 C3.34 6 2.68 6 2 6 C2 4.68 2 3.36 2 2 C1.34 2 0.68 2 0 2 C0 1.34 0 0.68 0 0 Z " fill="#919191" transform="translate(190,63)"/>
<path d="M0 0 C0.66 0 1.32 0 2 0 C2 1.65 2 3.3 2 5 C2.66 5.33 3.32 5.66 4 6 C2.68 6 1.36 6 0 6 C0 4.02 0 2.04 0 0 Z " fill="#949494" transform="translate(219,63)"/>
<path d="M0 0 C0.66 0 1.32 0 2 0 C2 1.98 2 3.96 2 6 C1.34 6 0.68 6 0 6 C0 4.02 0 2.04 0 0 Z " fill="#ABABAB" transform="translate(204,63)"/>
<path d="M0 0 C3.63 0 7.26 0 11 0 C11 0.33 11 0.66 11 1 C7.37 1 3.74 1 0 1 C0 0.67 0 0.34 0 0 Z " fill="#E9976F" transform="translate(0,73)"/>
<path d="M0 0 C0.66 0 1.32 0 2 0 C2 0.66 2 1.32 2 2 C1.34 2 0.68 2 0 2 C0 1.34 0 0.68 0 0 Z " fill="#ABABAB" transform="translate(175,66)"/>
</svg>
